<svg xmlns="http://www.w3.org/2000/svg" version="1.1" viewBox="157 194 586 510.57">
  <style>
    :root {
      color: black; /* default for light mode */
    }
    @media (prefers-color-scheme: dark) {
      :root {
        color: white;
      }
    }
  </style>
<path d="M0 0 C3.89025583 3.4149757 5.98223036 7.25032696 8.375 11.75 C12.33454021 19.03429936 16.42679103 26.22564497 20.625 33.375 C25.80871932 42.217062 30.92702675 51.09414076 36 60 C40.95348205 68.69418741 45.94369473 77.36503119 51 86 C56.4035646 95.22800529 61.72652361 104.4999467 67.02050781 113.79101562 C71.63502804 121.88744133 76.29095255 129.95806509 81 138 C86.4035646 147.22800529 91.72652361 156.4999467 97.02050781 165.79101562 C101.63502804 173.88744133 106.29095255 181.95806509 111 190 C116.4035646 199.22800529 121.72652361 208.4999467 127.02050781 217.79101562 C131.63502804 225.88744133 136.29095255 233.95806509 141 242 C146.4035646 251.22800529 151.72652361 260.4999467 157.02050781 269.79101562 C161.63502804 277.88744133 166.29095255 285.95806509 171 294 C176.4035646 303.22800529 181.72652361 312.4999467 187.02050781 321.79101562 C191.63502804 329.88744133 196.29095255 337.95806509 201 346 C206.4035646 355.22800529 211.72652361 364.4999467 217.02050781 373.79101562 C221.63502804 381.88744133 226.29095255 389.95806509 231 398 C236.4035646 407.22800529 241.72652361 416.4999467 247.02050781 425.79101562 C252.19024137 434.86159319 257.422976 443.89342464 262.69995117 452.90209961 C267.64397913 461.35619773 272.50137453 469.85832422 277.34130859 478.37228394 C281.94972411 486.47764257 286.6495979 494.50504739 291.59375 502.41015625 C293 505 293 505 293 508 C284.88974371 508.20889049 276.78061754 508.36861594 268.66833305 508.46630955 C264.90096664 508.5132089 261.13544506 508.57676496 257.36914062 508.67895508 C253.7314875 508.77703242 250.0956034 508.83061222 246.45672989 508.85389519 C245.07144435 508.87047655 243.68625172 508.90286198 242.30172348 508.95157051 C231.46646146 509.31746421 231.46646146 509.31746421 227.85858154 506.07615662 C226.29784079 503.77192 225.1253991 501.54077424 224 499 C223.25101525 497.6692819 222.49250245 496.34381477 221.71875 495.02734375 C220.97613299 493.66571265 220.23668227 492.30235109 219.5 490.9375 C215.5709288 483.76524171 211.512348 476.67903904 207.375 469.625 C202.1917722 460.78264665 197.07297619 451.90586441 192 443 C187.04651795 434.30581259 182.05630527 425.63496881 177 417 C171.5964354 407.77199471 166.27347639 398.5000533 160.97949219 389.20898438 C156.36497196 381.11255867 151.70904745 373.04193491 147 365 C141.5964354 355.77199471 136.27347639 346.5000533 130.97949219 337.20898438 C126.36497196 329.11255867 121.70904745 321.04193491 117 313 C111.5964354 303.77199471 106.27347639 294.5000533 100.97949219 285.20898438 C96.36497196 277.11255867 91.70904745 269.04193491 87 261 C81.5964354 251.77199471 76.27347639 242.5000533 70.97949219 233.20898438 C66.36497196 225.11255867 61.70904745 217.04193491 57 209 C51.5964354 199.77199471 46.27347639 190.5000533 40.97949219 181.20898438 C35.81381425 172.1455226 30.58826568 163.1189318 25.31103516 154.11987305 C22.07255994 148.58689975 18.87265875 143.03409015 15.7109375 137.45703125 C15.34913391 136.81974091 14.98733032 136.18245056 14.61456299 135.52584839 C12.84688993 132.41158164 11.08371419 129.29492273 9.328125 126.17382812 C8.69132812 125.05041016 8.05453125 123.92699219 7.3984375 122.76953125 C6.83817871 121.77542236 6.27791992 120.78131348 5.70068359 119.75708008 C3.98667478 116.97839768 2.09156996 114.50319961 0 112 C-0.35602295 112.64211426 -0.7120459 113.28422852 -1.07885742 113.94580078 C-7.91681393 126.26133991 -14.8291885 138.51485065 -22.03417969 150.62011719 C-26.22768953 157.67157594 -30.34600373 164.76390273 -34.4375 171.875 C-39.2656729 180.26539603 -44.11477902 188.64268411 -49 197 C-56.38427938 209.6373575 -63.69490196 222.31675405 -71 235 C-78.87580724 248.6741218 -86.76855846 262.33736974 -94.73071289 275.96142578 C-99.01244917 283.29312479 -103.26220007 290.64282981 -107.5 298 C-112.8791408 307.33863207 -118.29259447 316.65640317 -123.73046875 325.9609375 C-128.01222122 333.29283723 -132.26210939 340.64267238 -136.5 348 C-141.8791408 357.33863207 -147.29259447 366.65640317 -152.73046875 375.9609375 C-157.01222122 383.29283723 -161.26210939 390.64267238 -165.5 398 C-170.8791408 407.33863207 -176.29259447 416.65640317 -181.73046875 425.9609375 C-186.0122217 433.29283806 -190.26198442 440.64274377 -194.5 448 C-204.02294702 464.52677811 -213.62922464 481.0041356 -223.3125 497.4375 C-224.149021 498.8601416 -224.149021 498.8601416 -225.00244141 500.31152344 C-225.76886963 501.60944824 -225.76886963 501.60944824 -226.55078125 502.93359375 C-227.00106689 503.69728271 -227.45135254 504.46097168 -227.9152832 505.24780273 C-229 507 -229 507 -230 508 C-231.96369153 508.0940067 -233.93079199 508.11743381 -235.89672852 508.11352539 C-237.15796036 508.11344986 -238.4191922 508.11337433 -239.71864319 508.11329651 C-241.10539794 508.1081891 -242.49215229 508.10297309 -243.87890625 508.09765625 C-245.28995209 508.09579201 -246.70099857 508.09436814 -248.11204529 508.09336853 C-251.83240535 508.08954379 -255.5527266 508.0797139 -259.27307129 508.06866455 C-263.06680781 508.05844948 -266.86055058 508.05387071 -270.65429688 508.04882812 C-278.10288231 508.03809158 -285.55143572 508.0210157 -293 508 C-292.05408722 503.65439694 -289.98583739 500.08932353 -287.8125 496.25 C-287.37252686 495.46560547 -286.93255371 494.68121094 -286.47924805 493.87304688 C-281.65158516 485.30754333 -276.67634898 476.82752818 -271.70703125 468.34375 C-267.94246163 461.91240269 -264.21827906 455.45819045 -260.5 449 C-255.69166435 440.65191088 -250.86094247 432.31756695 -246 424 C-238.61585107 411.36256546 -231.30509865 398.68324702 -224 386 C-216.12419276 372.3258782 -208.23144154 358.66263026 -200.26928711 345.03857422 C-195.98755083 337.70687521 -191.73779993 330.35717019 -187.5 323 C-182.1208592 313.66136793 -176.70740553 304.34359683 -171.26953125 295.0390625 C-166.98777878 287.70716277 -162.73789061 280.35732762 -158.5 273 C-153.69148156 264.65201541 -148.86094317 256.31756816 -144 248 C-136.61585107 235.36256546 -129.30509865 222.68324702 -122 210 C-114.12419276 196.3258782 -106.23144154 182.66263026 -98.26928711 169.03857422 C-93.98755083 161.70687521 -89.73779993 154.35717019 -85.5 147 C-80.69148156 138.65201541 -75.86094317 130.31756816 -71 122 C-63.61585107 109.36256546 -56.30509865 96.68324702 -49 84 C-41.13090984 70.33754052 -33.24710263 56.6846136 -25.2890625 43.07373047 C-22.16447362 37.72526329 -19.05449033 32.36872837 -15.96484375 27 C-15.62756256 26.41412109 -15.29028137 25.82824219 -14.94277954 25.22460938 C-13.31319993 22.3931652 -11.68556772 19.5606259 -10.06054688 16.7265625 C-6.81297727 11.07799675 -3.49602996 5.4984819 0 0 Z " fill="currentColor" transform="translate(450,194)"/>
<path d="M0 0 C0.66 0 1.32 0 2 0 C2.48073975 0.85658203 2.48073975 0.85658203 2.97119141 1.73046875 C9.97555664 14.19809021 17.05594334 26.61426169 24.32861328 38.92773438 C25.41629873 40.7778458 26.48850495 42.63717765 27.54223633 44.50683594 C28.92834736 46.97874983 28.92834736 46.97874983 30.51049805 49.04785156 C31.92575113 51.1397079 32.67034202 52.48877337 33 55 C31.57377011 59.37266448 29.16749454 63.02545624 26.6875 66.875 C25.98227886 68.02135389 25.28051042 69.16983827 24.58203125 70.3203125 C23.12831433 72.70867681 21.66017285 75.08718999 20.18115234 77.45996094 C16.81288939 82.8909672 13.66859414 88.451057 10.5 94 C9.25105394 96.16727437 8.00105021 98.33393956 6.75 100.5 C5.821875 102.10875 5.821875 102.10875 4.875 103.75 C3 107 1.125 110.25 -0.75 113.5 C-1.36883057 114.57266113 -1.98766113 115.64532227 -2.62524414 116.75048828 C-3.87435518 118.91557071 -5.12354129 121.08060982 -6.37280273 123.24560547 C-9.51202309 128.68615706 -12.64990563 134.12747216 -15.78515625 139.5703125 C-22.39551282 151.04283217 -29.03111939 162.49972312 -35.71313477 173.93066406 C-38.82330213 179.25533401 -41.92101355 184.58692524 -45 189.9296875 C-45.33491455 190.51083313 -45.6698291 191.09197876 -46.01489258 191.69073486 C-47.62873886 194.49211183 -49.24096889 197.29440788 -50.8515625 200.09765625 C-51.43679688 201.11472656 -52.02203125 202.13179687 -52.625 203.1796875 C-53.13289063 204.06382324 -53.64078125 204.94795898 -54.1640625 205.85888672 C-56.73777639 210.26226477 -59.36923884 214.63052897 -62 219 C-60.96096527 218.99254257 -59.92193054 218.98508514 -58.85140991 218.97740173 C-49.05208377 218.91294085 -39.25366125 218.89581195 -29.45415306 218.92484188 C-24.41611059 218.93825017 -19.37922339 218.93507144 -14.34130859 218.89379883 C-9.47778747 218.85456826 -4.6160874 218.85915281 0.24744797 218.89392281 C2.10137248 218.89951519 3.95541394 218.88940607 5.80916214 218.86323357 C20.32310641 218.67338816 20.32310641 218.67338816 24.40678406 221.90403748 C25.98813111 224.22482176 27.02713368 226.37332093 28 229 C28.52021729 229.88840576 29.04043457 230.77681152 29.57641602 231.69213867 C29.96498779 232.4266626 30.35355957 233.16118652 30.75390625 233.91796875 C31.20991211 234.76963623 31.66591797 235.62130371 32.13574219 236.4987793 C32.8419873 237.82969604 32.8419873 237.82969604 33.5625 239.1875 C38.44659752 248.29629495 43.59822433 257.21004687 48.98657227 266.0300293 C49.51178467 266.90054932 50.03699707 267.77106934 50.578125 268.66796875 C51.04637695 269.43391357 51.51462891 270.1998584 51.99707031 270.98901367 C53 273 53 273 53 276 C-16.63 276 -86.26 276 -158 276 C-157.10360206 272.41440824 -156.11761713 270.15394339 -154.33203125 266.984375 C-153.77596191 265.99332764 -153.21989258 265.00228027 -152.64697266 263.98120117 C-152.04159668 262.91490479 -151.4362207 261.8486084 -150.8125 260.75 C-150.1839209 259.63536377 -149.5553418 258.52072754 -148.90771484 257.37231445 C-144.14344986 248.95022 -139.28856856 240.58220753 -134.39379883 232.23535156 C-129.87328893 224.52171843 -125.4251683 216.76850798 -121 209 C-116.04650554 200.30581837 -111.0562137 191.63502325 -106 183 C-100.62275623 173.8149289 -95.31864035 164.58961538 -90.046875 155.34375 C-85.22207465 146.88179246 -80.37431361 138.43357068 -75.5 130 C-70.307595 121.01459064 -65.14333816 112.01354666 -60 103 C-51.76426888 88.56860638 -43.45951043 74.17743616 -35.14550781 59.79101562 C-33.28397332 56.56931731 -31.42313239 53.34721938 -29.5625 50.125 C-28.95277344 49.06982178 -28.34304688 48.01464355 -27.71484375 46.92749023 C-24.36015995 41.1152544 -21.02444376 35.29280169 -17.7109375 29.45703125 C-16.99017515 28.18927777 -16.26939079 26.9215368 -15.54858398 25.65380859 C-14.17976815 23.24607434 -12.81531772 20.83594018 -11.45336914 18.42431641 C-3.17648233 3.85844602 -3.17648233 3.85844602 0 0 Z " fill="currentColor" transform="translate(450,379)"/>
<path d="M0 0 C2.67813752 2.4150749 4.3043511 5.01052912 6.08203125 8.13671875 C6.67693359 9.17634766 7.27183594 10.21597656 7.88476562 11.28710938 C8.83899414 12.97030273 8.83899414 12.97030273 9.8125 14.6875 C10.82652174 16.46333743 11.84230529 18.23815984 12.85812378 20.01296997 C13.55246591 21.22641774 14.24624725 22.44018655 14.93948364 23.65426636 C18.25491901 29.45849256 21.6230788 35.23135466 25 41 C29.86168025 49.31713477 34.69141371 57.65206118 39.5 66 C46.62086408 78.36022518 53.80183378 90.68467327 61 103 C68.83657983 116.40758718 76.64278608 129.83159279 84.39428711 143.28857422 C88.57327594 150.53921986 92.7773134 157.77472586 97 165 C102.49032637 174.39428304 107.93928898 183.81173302 113.3659668 193.24291992 C116.55191122 198.77504104 119.75435646 204.29654797 122.98828125 209.80078125 C123.63023437 210.89455078 124.2721875 211.98832031 124.93359375 213.11523438 C126.15586085 215.19512133 127.38097164 217.27334066 128.609375 219.34960938 C129.15722656 220.28224609 129.70507812 221.21488281 130.26953125 222.17578125 C130.75010986 222.98958252 131.23068848 223.80338379 131.72583008 224.6418457 C133.02190554 227.04054141 134.00763255 229.46333196 135 232 C126.88174888 232.51311912 118.77038841 232.90210166 110.63986683 233.13986778 C106.86219349 233.25410207 103.09569257 233.40830069 99.32446289 233.65966797 C75.11011559 235.2312533 75.11011559 235.2312533 68.4269104 229.97711182 C64.07920848 224.80283702 61.47475521 218.95759226 59.06619263 212.68914795 C57.68035624 209.19379543 55.91554517 206.20522453 53.94140625 203.0078125 C52.81402884 201.04749302 51.68770844 199.08656525 50.5625 197.125 C45.73541089 188.73398528 40.88530344 180.35725733 36 172 C31.13888387 163.68253222 26.30867456 155.34789376 21.5 147 C16.559852 138.42686229 11.60621234 129.86185349 6.625 121.3125 C6.09068359 120.39404297 5.55636719 119.47558594 5.00585938 118.52929688 C3.93489566 116.6935468 2.84014486 114.87149049 1.72338867 113.06323242 C0.38552894 110.68525735 -0.61427625 108.52539619 -1.60424805 106.0090332 C-3.43420802 101.74833952 -5.25180778 97.87574369 -9 95 C-16.31467523 92.43550969 -24.44356805 93.26971339 -32.0625 93.5625 C-34.18937687 93.58954961 -36.31635175 93.60979908 -38.44335938 93.62304688 C-43.6333485 93.67011476 -48.81336362 93.80980746 -54 94 C-50.15618294 86.09464461 -46.04462732 78.43491929 -41.5625 70.875 C-40.32231764 68.76597714 -39.08275562 66.65658939 -37.84375 64.546875 C-37.20953125 63.46857422 -36.5753125 62.39027344 -35.921875 61.27929688 C-32.77515808 55.91005123 -29.66857309 50.51782768 -26.5625 45.125 C-25.94858398 44.06039551 -25.33466797 42.99579102 -24.70214844 41.89892578 C-21.76411065 36.80290765 -18.8296226 31.70487589 -15.90113831 26.60336304 C-14.53493486 24.22402828 -13.16719744 21.84557718 -11.79928589 19.46722412 C-10.83870135 17.7955961 -9.88037822 16.12266921 -8.92211914 14.44970703 C-6.08890547 9.52417226 -3.24312208 4.66752061 0 0 Z " fill="currentColor" transform="translate(503,470)"/>
</svg>